<mxfile host="65bd71144e">
    <diagram id="KbdRSB4xixegALwZqxuM" name="Page-1">
        <mxGraphModel dx="1566" dy="1150" grid="1" gridSize="10" guides="1" tooltips="1" connect="1" arrows="1" fold="1" page="1" pageScale="1" pageWidth="827" pageHeight="1169" math="0" shadow="0">
            <root>
                <mxCell id="0"/>
                <mxCell id="1" parent="0"/>
                <mxCell id="34" value="" style="whiteSpace=wrap;html=1;" vertex="1" parent="1">
                    <mxGeometry x="740" y="830" width="590" height="360" as="geometry"/>
                </mxCell>
                <mxCell id="Hq47bqaGIPakzZ_2F75P-1" value="MyNHS API" style="rounded=0;whiteSpace=wrap;html=1;" parent="1" vertex="1">
                    <mxGeometry x="500" y="210" width="120" height="60" as="geometry"/>
                </mxCell>
                <mxCell id="Hq47bqaGIPakzZ_2F75P-2" value="Authorisation" style="whiteSpace=wrap;html=1;" parent="1" vertex="1">
                    <mxGeometry x="320" y="200" width="120" height="60" as="geometry"/>
                </mxCell>
                <mxCell id="Hq47bqaGIPakzZ_2F75P-3" value="Authenticate NHS Login" style="whiteSpace=wrap;html=1;" parent="1" vertex="1">
                    <mxGeometry x="200" y="80" width="120" height="60" as="geometry"/>
                </mxCell>
                <mxCell id="Hq47bqaGIPakzZ_2F75P-4" value="Authenticate NHS CIS2" style="whiteSpace=wrap;html=1;" parent="1" vertex="1">
                    <mxGeometry x="400" y="80" width="120" height="60" as="geometry"/>
                </mxCell>
                <mxCell id="Hq47bqaGIPakzZ_2F75P-5" value="NHS Account VC Issuer" style="rounded=0;whiteSpace=wrap;html=1;" parent="1" vertex="1">
                    <mxGeometry x="40" y="200" width="120" height="60" as="geometry"/>
                </mxCell>
                <mxCell id="Hq47bqaGIPakzZ_2F75P-6" value="NHS Login VC Issuer" style="rounded=0;whiteSpace=wrap;html=1;" parent="1" vertex="1">
                    <mxGeometry x="40" y="70" width="120" height="60" as="geometry"/>
                </mxCell>
                <mxCell id="Hq47bqaGIPakzZ_2F75P-7" value="API RBAC" style="rounded=0;whiteSpace=wrap;html=1;" parent="1" vertex="1">
                    <mxGeometry x="570" y="110" width="120" height="60" as="geometry"/>
                </mxCell>
                <mxCell id="Hq47bqaGIPakzZ_2F75P-8" value="" style="rounded=0;whiteSpace=wrap;html=1;" parent="1" vertex="1">
                    <mxGeometry x="100" y="420" width="600" height="850" as="geometry"/>
                </mxCell>
                <mxCell id="Hq47bqaGIPakzZ_2F75P-9" value="NHS Account" style="text;html=1;strokeColor=none;fillColor=none;align=center;verticalAlign=middle;whiteSpace=wrap;rounded=0;" parent="1" vertex="1">
                    <mxGeometry x="110" y="430" width="60" height="30" as="geometry"/>
                </mxCell>
                <mxCell id="Hq47bqaGIPakzZ_2F75P-33" style="edgeStyle=orthogonalEdgeStyle;rounded=0;orthogonalLoop=1;jettySize=auto;html=1;exitX=0;exitY=1;exitDx=0;exitDy=0;entryX=0;entryY=0.25;entryDx=0;entryDy=0;" parent="1" source="Hq47bqaGIPakzZ_2F75P-10" target="Hq47bqaGIPakzZ_2F75P-32" edge="1">
                    <mxGeometry relative="1" as="geometry">
                        <Array as="points">
                            <mxPoint x="120" y="1010"/>
                            <mxPoint x="110" y="1010"/>
                            <mxPoint x="110" y="1038"/>
                        </Array>
                    </mxGeometry>
                </mxCell>
                <mxCell id="Hq47bqaGIPakzZ_2F75P-10" value="" style="rounded=0;whiteSpace=wrap;html=1;" parent="1" vertex="1">
                    <mxGeometry x="120" y="490" width="130" height="130" as="geometry"/>
                </mxCell>
                <mxCell id="Hq47bqaGIPakzZ_2F75P-11" value="Users" style="text;html=1;strokeColor=none;fillColor=none;align=center;verticalAlign=middle;whiteSpace=wrap;rounded=0;" parent="1" vertex="1">
                    <mxGeometry x="120" y="490" width="60" height="30" as="geometry"/>
                </mxCell>
                <mxCell id="Hq47bqaGIPakzZ_2F75P-12" value="" style="rounded=0;whiteSpace=wrap;html=1;" parent="1" vertex="1">
                    <mxGeometry x="270" y="490" width="140" height="130" as="geometry"/>
                </mxCell>
                <mxCell id="Hq47bqaGIPakzZ_2F75P-13" value="Applications" style="text;html=1;strokeColor=none;fillColor=none;align=center;verticalAlign=middle;whiteSpace=wrap;rounded=0;" parent="1" vertex="1">
                    <mxGeometry x="280" y="490" width="60" height="30" as="geometry"/>
                </mxCell>
                <mxCell id="Hq47bqaGIPakzZ_2F75P-15" value="" style="rounded=0;whiteSpace=wrap;html=1;" parent="1" vertex="1">
                    <mxGeometry x="420" y="490" width="130" height="130" as="geometry"/>
                </mxCell>
                <mxCell id="Hq47bqaGIPakzZ_2F75P-16" value="Scopes" style="text;html=1;strokeColor=none;fillColor=none;align=center;verticalAlign=middle;whiteSpace=wrap;rounded=0;" parent="1" vertex="1">
                    <mxGeometry x="420" y="490" width="60" height="30" as="geometry"/>
                </mxCell>
                <mxCell id="Hq47bqaGIPakzZ_2F75P-21" style="edgeStyle=orthogonalEdgeStyle;rounded=0;orthogonalLoop=1;jettySize=auto;html=1;exitX=0.5;exitY=0;exitDx=0;exitDy=0;" parent="1" source="Hq47bqaGIPakzZ_2F75P-17" target="Hq47bqaGIPakzZ_2F75P-12" edge="1">
                    <mxGeometry relative="1" as="geometry"/>
                </mxCell>
                <mxCell id="Hq47bqaGIPakzZ_2F75P-22" style="edgeStyle=orthogonalEdgeStyle;rounded=0;orthogonalLoop=1;jettySize=auto;html=1;exitX=0;exitY=0.5;exitDx=0;exitDy=0;entryX=0.75;entryY=1;entryDx=0;entryDy=0;" parent="1" source="Hq47bqaGIPakzZ_2F75P-17" target="Hq47bqaGIPakzZ_2F75P-10" edge="1">
                    <mxGeometry relative="1" as="geometry"/>
                </mxCell>
                <mxCell id="Hq47bqaGIPakzZ_2F75P-17" value="User - Application" style="rounded=0;whiteSpace=wrap;html=1;" parent="1" vertex="1">
                    <mxGeometry x="270" y="630" width="160" height="60" as="geometry"/>
                </mxCell>
                <mxCell id="Hq47bqaGIPakzZ_2F75P-23" style="edgeStyle=orthogonalEdgeStyle;rounded=0;orthogonalLoop=1;jettySize=auto;html=1;exitX=0;exitY=0.5;exitDx=0;exitDy=0;entryX=0.5;entryY=1;entryDx=0;entryDy=0;" parent="1" source="Hq47bqaGIPakzZ_2F75P-18" target="Hq47bqaGIPakzZ_2F75P-10" edge="1">
                    <mxGeometry relative="1" as="geometry"/>
                </mxCell>
                <mxCell id="Hq47bqaGIPakzZ_2F75P-24" style="edgeStyle=orthogonalEdgeStyle;rounded=0;orthogonalLoop=1;jettySize=auto;html=1;exitX=1;exitY=0.5;exitDx=0;exitDy=0;entryX=0.25;entryY=1;entryDx=0;entryDy=0;" parent="1" source="Hq47bqaGIPakzZ_2F75P-18" target="Hq47bqaGIPakzZ_2F75P-15" edge="1">
                    <mxGeometry relative="1" as="geometry"/>
                </mxCell>
                <mxCell id="Hq47bqaGIPakzZ_2F75P-18" value="User - Scopes" style="rounded=0;whiteSpace=wrap;html=1;" parent="1" vertex="1">
                    <mxGeometry x="270" y="700" width="160" height="60" as="geometry"/>
                </mxCell>
                <mxCell id="Hq47bqaGIPakzZ_2F75P-25" style="edgeStyle=orthogonalEdgeStyle;rounded=0;orthogonalLoop=1;jettySize=auto;html=1;exitX=1;exitY=0.5;exitDx=0;exitDy=0;entryX=0.75;entryY=1;entryDx=0;entryDy=0;" parent="1" source="Hq47bqaGIPakzZ_2F75P-19" target="Hq47bqaGIPakzZ_2F75P-15" edge="1">
                    <mxGeometry relative="1" as="geometry"/>
                </mxCell>
                <mxCell id="Hq47bqaGIPakzZ_2F75P-26" style="edgeStyle=orthogonalEdgeStyle;rounded=0;orthogonalLoop=1;jettySize=auto;html=1;exitX=1;exitY=0.75;exitDx=0;exitDy=0;entryX=0.75;entryY=0;entryDx=0;entryDy=0;" parent="1" source="Hq47bqaGIPakzZ_2F75P-19" target="Hq47bqaGIPakzZ_2F75P-12" edge="1">
                    <mxGeometry relative="1" as="geometry">
                        <Array as="points">
                            <mxPoint x="580" y="815"/>
                            <mxPoint x="580" y="470"/>
                            <mxPoint x="375" y="470"/>
                        </Array>
                    </mxGeometry>
                </mxCell>
                <mxCell id="Hq47bqaGIPakzZ_2F75P-19" value="Application - Scopes" style="rounded=0;whiteSpace=wrap;html=1;" parent="1" vertex="1">
                    <mxGeometry x="270" y="770" width="160" height="60" as="geometry"/>
                </mxCell>
                <mxCell id="Hq47bqaGIPakzZ_2F75P-27" value="Account Roles" style="rounded=0;whiteSpace=wrap;html=1;" parent="1" vertex="1">
                    <mxGeometry x="420" y="860" width="130" height="130" as="geometry"/>
                </mxCell>
                <mxCell id="Hq47bqaGIPakzZ_2F75P-30" style="edgeStyle=orthogonalEdgeStyle;rounded=0;orthogonalLoop=1;jettySize=auto;html=1;exitX=1;exitY=0.5;exitDx=0;exitDy=0;entryX=0;entryY=0.615;entryDx=0;entryDy=0;entryPerimeter=0;" parent="1" source="Hq47bqaGIPakzZ_2F75P-29" target="Hq47bqaGIPakzZ_2F75P-27" edge="1">
                    <mxGeometry relative="1" as="geometry"/>
                </mxCell>
                <mxCell id="Hq47bqaGIPakzZ_2F75P-31" style="edgeStyle=orthogonalEdgeStyle;rounded=0;orthogonalLoop=1;jettySize=auto;html=1;exitX=0;exitY=0.5;exitDx=0;exitDy=0;entryX=0.236;entryY=1.054;entryDx=0;entryDy=0;entryPerimeter=0;" parent="1" source="Hq47bqaGIPakzZ_2F75P-29" target="Hq47bqaGIPakzZ_2F75P-10" edge="1">
                    <mxGeometry relative="1" as="geometry"/>
                </mxCell>
                <mxCell id="Hq47bqaGIPakzZ_2F75P-29" value="User - Account Roles" style="rounded=0;whiteSpace=wrap;html=1;" parent="1" vertex="1">
                    <mxGeometry x="240" y="910" width="160" height="60" as="geometry"/>
                </mxCell>
                <mxCell id="Hq47bqaGIPakzZ_2F75P-32" value="User Identities" style="rounded=0;whiteSpace=wrap;html=1;" parent="1" vertex="1">
                    <mxGeometry x="125" y="1010" width="120" height="110" as="geometry"/>
                </mxCell>
                <mxCell id="10" style="edgeStyle=none;html=1;exitX=0.5;exitY=1;exitDx=0;exitDy=0;" edge="1" parent="1" source="2" target="6">
                    <mxGeometry relative="1" as="geometry"/>
                </mxCell>
                <mxCell id="2" value="NHS Account" style="whiteSpace=wrap;html=1;" vertex="1" parent="1">
                    <mxGeometry x="873" y="100" width="120" height="60" as="geometry"/>
                </mxCell>
                <mxCell id="11" style="edgeStyle=none;html=1;exitX=0.5;exitY=1;exitDx=0;exitDy=0;" edge="1" parent="1" source="4" target="7">
                    <mxGeometry relative="1" as="geometry"/>
                </mxCell>
                <mxCell id="4" value="NHS Account" style="whiteSpace=wrap;html=1;" vertex="1" parent="1">
                    <mxGeometry x="1033" y="100" width="120" height="60" as="geometry"/>
                </mxCell>
                <mxCell id="8" style="edgeStyle=none;html=1;exitX=0.5;exitY=1;exitDx=0;exitDy=0;entryX=0.5;entryY=1;entryDx=0;entryDy=0;" edge="1" parent="1" source="6" target="7">
                    <mxGeometry relative="1" as="geometry">
                        <Array as="points">
                            <mxPoint x="1013" y="330"/>
                        </Array>
                    </mxGeometry>
                </mxCell>
                <mxCell id="9" value="Guest User" style="edgeLabel;html=1;align=center;verticalAlign=middle;resizable=0;points=[];" vertex="1" connectable="0" parent="8">
                    <mxGeometry x="-0.2017" y="3" relative="1" as="geometry">
                        <mxPoint as="offset"/>
                    </mxGeometry>
                </mxCell>
                <mxCell id="6" value="Users" style="whiteSpace=wrap;html=1;" vertex="1" parent="1">
                    <mxGeometry x="870" y="185" width="120" height="60" as="geometry"/>
                </mxCell>
                <mxCell id="14" style="edgeStyle=none;html=1;exitX=0.5;exitY=1;exitDx=0;exitDy=0;entryX=0.5;entryY=0;entryDx=0;entryDy=0;" edge="1" parent="1" source="7" target="13">
                    <mxGeometry relative="1" as="geometry"/>
                </mxCell>
                <mxCell id="7" value="Users" style="whiteSpace=wrap;html=1;" vertex="1" parent="1">
                    <mxGeometry x="1033" y="185" width="120" height="60" as="geometry"/>
                </mxCell>
                <mxCell id="13" value="User Roles" style="whiteSpace=wrap;html=1;" vertex="1" parent="1">
                    <mxGeometry x="1121" y="290" width="120" height="60" as="geometry"/>
                </mxCell>
                <mxCell id="17" style="edgeStyle=none;html=1;exitX=0.5;exitY=0;exitDx=0;exitDy=0;" edge="1" parent="1" source="16">
                    <mxGeometry relative="1" as="geometry">
                        <mxPoint x="1000" y="320" as="targetPoint"/>
                    </mxGeometry>
                </mxCell>
                <mxCell id="28" value="Auto add guest user&lt;br&gt;based on VC claims" style="edgeLabel;html=1;align=center;verticalAlign=middle;resizable=0;points=[];" vertex="1" connectable="0" parent="17">
                    <mxGeometry x="0.2128" y="-3" relative="1" as="geometry">
                        <mxPoint as="offset"/>
                    </mxGeometry>
                </mxCell>
                <mxCell id="18" style="edgeStyle=none;html=1;exitX=1;exitY=0;exitDx=0;exitDy=0;entryX=0.008;entryY=0.4;entryDx=0;entryDy=0;entryPerimeter=0;" edge="1" parent="1" source="16" target="13">
                    <mxGeometry relative="1" as="geometry"/>
                </mxCell>
                <mxCell id="27" value="Auto Setup roles based &lt;br&gt;on Creds - &lt;br&gt;ie Birth parents etc" style="edgeLabel;html=1;align=center;verticalAlign=middle;resizable=0;points=[];" vertex="1" connectable="0" parent="18">
                    <mxGeometry x="-0.1652" y="-5" relative="1" as="geometry">
                        <mxPoint x="1" as="offset"/>
                    </mxGeometry>
                </mxCell>
                <mxCell id="16" value="Verifyable Creds Validator / Acceptor" style="whiteSpace=wrap;html=1;" vertex="1" parent="1">
                    <mxGeometry x="913" y="500" width="120" height="60" as="geometry"/>
                </mxCell>
                <mxCell id="19" value="NHS Number API" style="whiteSpace=wrap;html=1;" vertex="1" parent="1">
                    <mxGeometry x="1597" y="530" width="120" height="60" as="geometry"/>
                </mxCell>
                <mxCell id="20" value="My NHS API" style="whiteSpace=wrap;html=1;" vertex="1" parent="1">
                    <mxGeometry x="1597" y="650" width="120" height="60" as="geometry"/>
                </mxCell>
                <mxCell id="22" value="API Resources" style="whiteSpace=wrap;html=1;" vertex="1" parent="1">
                    <mxGeometry x="1260" y="580" width="127" height="60" as="geometry"/>
                </mxCell>
                <mxCell id="23" value="API Gateway / Scope Management" style="whiteSpace=wrap;html=1;" vertex="1" parent="1">
                    <mxGeometry x="1420" y="580" width="120" height="60" as="geometry"/>
                </mxCell>
                <mxCell id="24" value="API RBAC" style="whiteSpace=wrap;html=1;" vertex="1" parent="1">
                    <mxGeometry x="1737" y="530" width="120" height="60" as="geometry"/>
                </mxCell>
                <mxCell id="25" value="API RBAC" style="whiteSpace=wrap;html=1;" vertex="1" parent="1">
                    <mxGeometry x="1737" y="650" width="120" height="60" as="geometry"/>
                </mxCell>
                <mxCell id="26" value="&quot;Tenant / Org - &quot;per citzen&quot;" style="text;html=1;align=center;verticalAlign=middle;resizable=0;points=[];autosize=1;strokeColor=none;fillColor=none;" vertex="1" parent="1">
                    <mxGeometry x="180" y="430" width="160" height="20" as="geometry"/>
                </mxCell>
                <mxCell id="30" style="edgeStyle=none;html=1;exitX=0.5;exitY=0;exitDx=0;exitDy=0;entryX=0.5;entryY=1;entryDx=0;entryDy=0;" edge="1" parent="1" source="29" target="Hq47bqaGIPakzZ_2F75P-29">
                    <mxGeometry relative="1" as="geometry"/>
                </mxCell>
                <mxCell id="33" style="edgeStyle=none;html=1;exitX=0;exitY=0.5;exitDx=0;exitDy=0;entryX=1;entryY=0.25;entryDx=0;entryDy=0;" edge="1" parent="1" source="29" target="Hq47bqaGIPakzZ_2F75P-32">
                    <mxGeometry relative="1" as="geometry"/>
                </mxCell>
                <mxCell id="29" value="Verified By....." style="whiteSpace=wrap;html=1;" vertex="1" parent="1">
                    <mxGeometry x="780" y="1100" width="120" height="60" as="geometry"/>
                </mxCell>
                <mxCell id="32" style="edgeStyle=none;html=1;exitX=0;exitY=0.5;exitDx=0;exitDy=0;" edge="1" parent="1" source="31" target="29">
                    <mxGeometry relative="1" as="geometry"/>
                </mxCell>
                <mxCell id="42" style="edgeStyle=none;html=1;exitX=0.75;exitY=0;exitDx=0;exitDy=0;entryX=1;entryY=0.5;entryDx=0;entryDy=0;" edge="1" parent="1" source="31" target="38">
                    <mxGeometry relative="1" as="geometry"/>
                </mxCell>
                <mxCell id="31" value="VC Revoksion Check" style="whiteSpace=wrap;html=1;" vertex="1" parent="1">
                    <mxGeometry x="1170" y="1100" width="120" height="60" as="geometry"/>
                </mxCell>
                <mxCell id="35" value="&lt;span&gt;Verifyable Creds RP Servcice&lt;/span&gt;" style="text;html=1;align=center;verticalAlign=middle;resizable=0;points=[];autosize=1;strokeColor=none;fillColor=none;" vertex="1" parent="1">
                    <mxGeometry x="750" y="850" width="170" height="20" as="geometry"/>
                </mxCell>
                <mxCell id="38" value="VC Issuers (DVLA, GRO, Passport, NHSLogin, NHS Account)" style="whiteSpace=wrap;html=1;" vertex="1" parent="1">
                    <mxGeometry x="770" y="740" width="120" height="60" as="geometry"/>
                </mxCell>
                <mxCell id="40" style="edgeStyle=none;html=1;exitX=0;exitY=0.75;exitDx=0;exitDy=0;entryX=1;entryY=0.75;entryDx=0;entryDy=0;" edge="1" parent="1" source="39" target="Hq47bqaGIPakzZ_2F75P-29">
                    <mxGeometry relative="1" as="geometry"/>
                </mxCell>
                <mxCell id="41" style="edgeStyle=none;html=1;exitX=0;exitY=1;exitDx=0;exitDy=0;entryX=1;entryY=0.75;entryDx=0;entryDy=0;" edge="1" parent="1" source="39" target="Hq47bqaGIPakzZ_2F75P-32">
                    <mxGeometry relative="1" as="geometry"/>
                </mxCell>
                <mxCell id="39" value="VC Relaying Party" style="whiteSpace=wrap;html=1;" vertex="1" parent="1">
                    <mxGeometry x="830" y="895" width="120" height="60" as="geometry"/>
                </mxCell>
                <mxCell id="43" value="" style="whiteSpace=wrap;html=1;" vertex="1" parent="1">
                    <mxGeometry y="320" width="290" height="210" as="geometry"/>
                </mxCell>
                <mxCell id="44" value="NHS&amp;nbsp;" style="text;html=1;align=center;verticalAlign=middle;resizable=0;points=[];autosize=1;strokeColor=none;fillColor=none;" vertex="1" parent="1">
                    <mxGeometry y="330" width="40" height="20" as="geometry"/>
                </mxCell>
            </root>
        </mxGraphModel>
    </diagram>
</mxfile>